<svg id="visual" viewBox="0 0 900 600" width="900" height="600" xmlns="http://www.w3.org/2000/svg" xmlns:xlink="http://www.w3.org/1999/xlink" version="1.1"><rect x="0" y="0" width="900" height="600" fill="#e6e6e6"></rect><path d="M0 516L82 514L164 510L245 517L327 515L409 512L491 517L573 512L655 517L736 511L818 515L900 512L900 601L818 601L736 601L655 601L573 601L491 601L409 601L327 601L245 601L164 601L82 601L0 601Z" fill="#009473"></path><path d="M0 530L82 520L164 528L245 525L327 526L409 523L491 526L573 529L655 524L736 518L818 525L900 530L900 601L818 601L736 601L655 601L573 601L491 601L409 601L327 601L245 601L164 601L82 601L0 601Z" fill="#0097a4"></path><path d="M0 535L82 534L164 539L245 535L327 541L409 533L491 540L573 532L655 534L736 536L818 538L900 540L900 601L818 601L736 601L655 601L573 601L491 601L409 601L327 601L245 601L164 601L82 601L0 601Z" fill="#0093d3"></path><path d="M0 551L82 550L164 549L245 550L327 545L409 544L491 550L573 547L655 545L736 547L818 552L900 552L900 601L818 601L736 601L655 601L573 601L491 601L409 601L327 601L245 601L164 601L82 601L0 601Z" fill="#0086e9"></path><path d="M0 564L82 561L164 563L245 558L327 560L409 559L491 560L573 560L655 563L736 562L818 559L900 559L900 601L818 601L736 601L655 601L573 601L491 601L409 601L327 601L245 601L164 601L82 601L0 601Z" fill="#0070fc"></path><path d="M0 571L82 571L164 573L245 570L327 572L409 575L491 573L573 572L655 573L736 573L818 575L900 569L900 601L818 601L736 601L655 601L573 601L491 601L409 601L327 601L245 601L164 601L82 601L0 601Z" fill="#0c51ff"></path><path d="M0 586L82 582L164 583L245 585L327 583L409 584L491 587L573 584L655 585L736 587L818 582L900 583L900 601L818 601L736 601L655 601L573 601L491 601L409 601L327 601L245 601L164 601L82 601L0 601Z" fill="#6600ff"></path></svg>